<svg
  xmlns="http://www.w3.org/2000/svg"
  width="50"
  height="51"
  viewBox="0 0 50 51"
  fill="none"
  webcrx=""
>
  <g clip-path="url(#clip0_5799_1218)">
    <mask
      id="mask0_5799_1218"
      style="mask-type: luminance"
      maskUnits="userSpaceOnUse"
      x="0"
      y="5"
      width="18"
      height="31"
    >
      <path
        d="M0.451822 35.1354C-0.254855 33.5458 0.0926914 31.1239 0.0926914 25.436C0.0926914 13.2742 -1.50892 16.0429 9.0449 9.96202C9.55174 9.67011 15.6367 6.16433 16.0827 5.89844L12.8969 20.2481L16.5635 21.2019C17.247 21.4707 17.583 21.8406 16.3231 22.7481L0.451822 35.1354Z"
        fill="white"
      />
    </mask>
    <g mask="url(#mask0_5799_1218)">
      <path
        d="M17.5831 5.89844H-1.50586V35.1354H17.5831V5.89844Z"
        fill="#D30000"
      />
    </g>
    <mask
      id="mask1_5799_1218"
      style="mask-type: luminance"
      maskUnits="userSpaceOnUse"
      x="0"
      y="5"
      width="17"
      height="31"
    >
      <path
        d="M0.451822 35.1354C-0.254855 33.5458 0.0926914 31.1239 0.0926914 25.436C0.0926914 13.2742 -1.50892 16.0429 9.0449 9.96202C9.55174 9.67011 15.6367 6.16433 16.0827 5.89844C5.66501 25.3898 0.451822 35.1354 0.451822 35.1354Z"
        fill="white"
      />
    </mask>
    <g mask="url(#mask1_5799_1218)">
      <path
        d="M16.0858 5.89844H-1.50586V35.1354H16.0858V5.89844Z"
        fill="#D30000"
      />
    </g>
    <mask
      id="mask2_5799_1218"
      style="mask-type: luminance"
      maskUnits="userSpaceOnUse"
      x="18"
      y="5"
      width="18"
      height="29"
    >
      <path
        d="M18.3555 5.5C20.0874 5.68208 22.0163 7.19653 26.9514 10.0405C37.5053 16.1214 35.9037 13.3555 35.9037 25.5145C35.9037 26.1012 35.9037 33.1098 35.9095 33.6301L25.0515 23.6965L22.3899 26.3873C21.8136 26.8439 21.327 26.948 21.1677 25.4075L18.3555 5.5Z"
        fill="white"
      />
    </mask>
    <g mask="url(#mask2_5799_1218)">
      <path d="M37.5053 5.5H18.3555V33.6272H37.5053V5.5Z" fill="#D30000" />
    </g>
    <mask
      id="mask3_5799_1218"
      style="mask-type: luminance"
      maskUnits="userSpaceOnUse"
      x="18"
      y="5"
      width="18"
      height="29"
    >
      <path
        d="M18.3555 5.5C20.0874 5.68208 22.0163 7.19653 26.9514 10.0405C37.5053 16.1214 35.9037 13.3555 35.9037 25.5145C35.9037 26.1012 35.9037 33.1098 35.9095 33.6301C35.9123 33.6272 30.062 24.2514 18.3555 5.5Z"
        fill="white"
      />
    </mask>
    <g mask="url(#mask3_5799_1218)">
      <path d="M37.5053 5.5H18.3555V33.6272H37.5053V5.5Z" fill="#D30000" />
    </g>
    <mask
      id="mask4_5799_1218"
      style="mask-type: luminance"
      maskUnits="userSpaceOnUse"
      x="1"
      y="27"
      width="35"
      height="19"
    >
      <path
        d="M35.1223 35.7905C34.097 37.198 31.8206 38.1055 26.8826 40.9495C16.3287 47.0304 19.532 47.0304 8.97814 40.9495C8.4713 40.6576 2.38635 37.1518 1.93164 36.8974L15.9812 32.4784L14.9762 28.831C14.869 28.1055 15.0197 27.6315 16.4388 28.2645L35.1223 35.7905Z"
        fill="white"
      />
    </mask>
    <g mask="url(#mask4_5799_1218)">
      <path
        d="M35.1243 27.6328H1.93359V47.0288H35.1243V27.6328Z"
        fill="#D30000"
      />
    </g>
    <mask
      id="mask5_5799_1218"
      style="mask-type: luminance"
      maskUnits="userSpaceOnUse"
      x="1"
      y="35"
      width="35"
      height="11"
    >
      <path
        d="M35.1223 35.793C34.097 37.2005 31.8206 38.108 26.8826 40.9519C16.3287 47.0329 19.532 47.0329 8.97814 40.9519C8.4713 40.66 2.38635 37.1542 1.93164 36.8999L35.1223 35.793Z"
        fill="white"
      />
    </mask>
    <g mask="url(#mask5_5799_1218)">
      <path
        d="M35.1243 35.793H1.93359V47.0329H35.1243V35.793Z"
        fill="#D30000"
      />
    </g>
  </g>
</svg>
